<svg xmlns="http://www.w3.org/2000/svg" width="845.7" height="758.18" viewBox="0 0 845.7 758.18">
  <g id="Group_1" data-name="Group 1" transform="translate(-336 -162.82)">
    <g id="rWN1jLPlw46ISWbh5Tmq1" transform="translate(0 -8.18)">
      <path id="Path_1" data-name="Path 1" d="M1181.6,451.8H336.1V311.4c0-77.2,61.4-140.4,136.4-140.4h572.8c75,0,136.4,63.2,136.4,140.4V451.8Z" fill="#34a853"/>
    </g>
    <g id="_x35_JAGFK6vTcOBDWET5j7HA" transform="translate(0 -4.09)">
      <path id="Path_2" data-name="Path 2" d="M1181.6,567H336.1V426.6c0-77.2,61.4-140.3,136.4-140.3h572.8c75,0,136.4,63.1,136.4,140.3V567Z" fill="#fb0"/>
    </g>
    <g id="O61mRXgZ76916z4p_sRXX">
      <path id="Path_3" data-name="Path 3" d="M1181.6,682.2H336.1V541.9c0-77.2,61.4-140.4,136.4-140.4h572.8c75,0,136.4,63.2,136.4,140.4V682.2Z" fill="#fe2c25"/>
    </g>
    <g id="nK6POBbTEfGvlKBt_0cpt" transform="translate(0 5.3)">
      <path id="Path_4" data-name="Path 4" d="M336.1,472,872.7,604a213.629,213.629,0,0,0,182.7-39.3l126.1-98.2V775.3c0,77.2-61.4,140.4-136.4,140.4H472.4c-75,0-136.4-63.2-136.4-140.4V472Z" fill="#4285f4" fill-rule="evenodd"/>
    </g>
  </g>
</svg>
